<?xml version="1.0" standalone="no"?>
<!DOCTYPE svg PUBLIC "-//W3C//DTD SVG 20010904//EN"
 "http://www.w3.org/TR/2001/REC-SVG-20010904/DTD/svg10.dtd">
<svg version="1.0" xmlns="http://www.w3.org/2000/svg"
 width="784.000000pt" height="515.000000pt" viewBox="0 0 784.000000 515.000000"
 preserveAspectRatio="xMidYMid meet">

<g transform="translate(0.000000,515.000000) scale(0.100000,-0.100000)"
fill="#000000" stroke="none">
<path d="M0 2575 l0 -2575 3920 0 3920 0 0 2575 0 2575 -3920 0 -3920 0 0
-2575z m2045 400 c242 -142 494 -289 559 -328 l119 -70 -217 -67 c-119 -37
-218 -69 -220 -71 -2 -2 54 -77 124 -165 l128 -161 -123 -87 c-68 -47 -127
-86 -132 -86 -5 0 -61 74 -124 165 -62 90 -117 164 -121 165 -4 0 -69 -77
-145 -171 -76 -93 -139 -166 -140 -162 -1 4 -48 294 -103 643 -55 349 -103
648 -106 664 l-6 29 33 -21 c19 -11 232 -136 474 -277z m2517 -90 c3 -3 -5
-51 -18 -107 -14 -56 -23 -103 -21 -104 2 -2 16 10 32 26 29 30 30 30 139 30
l111 0 -89 -89 c-48 -49 -83 -90 -78 -92 6 -2 34 -58 61 -124 28 -69 52 -114
55 -105 3 8 15 56 26 105 11 50 23 98 26 108 4 12 0 17 -15 17 -24 0 -25 -11
23 190 l31 135 98 3 c53 1 97 -1 97 -5 0 -4 -9 -46 -20 -93 -11 -47 -20 -89
-20 -93 0 -4 24 -7 52 -5 l53 3 17 75 c9 41 20 85 23 98 5 21 10 22 100 22 76
0 95 -3 95 -14 0 -14 -55 -260 -66 -298 -4 -13 0 -18 16 -18 16 0 20 -5 16
-17 -3 -10 -12 -49 -21 -88 -9 -38 -20 -87 -26 -107 l-10 -38 -94 0 c-54 0
-95 4 -95 10 0 10 37 173 46 203 5 15 -2 17 -50 17 l-54 0 -27 -115 -27 -115
-205 0 -204 0 -22 52 -21 52 -11 -50 -10 -49 -93 -3 c-50 -1 -92 -1 -92 1 0 2
11 54 25 115 29 130 29 132 10 132 -8 0 -15 4 -15 9 0 13 71 315 76 323 6 9
168 11 176 3z m1508 -12 c0 -10 -4 -34 -9 -53 -24 -93 -25 -90 11 -79 109 31
178 -23 178 -140 0 -44 3 -51 20 -51 24 0 25 -14 5 -71 -24 -68 -60 -115 -110
-145 -44 -25 -55 -27 -207 -31 l-161 -5 7 27 c51 201 54 225 35 225 -25 0 -25
6 16 179 19 82 35 151 35 155 0 3 41 6 90 6 79 0 90 -2 90 -17z m-2560 1 c0
-3 -7 -36 -16 -75 l-16 -69 -77 0 -77 0 -13 -62 c-7 -35 -15 -73 -18 -85 -4
-17 -1 -23 11 -23 19 0 19 -5 -17 -160 l-22 -95 -98 -3 c-56 -2 -97 1 -97 7 0
5 11 57 25 115 29 124 30 136 9 136 -10 0 -14 6 -10 18 5 18 20 78 30 125 l6
27 -75 0 c-41 0 -75 2 -75 6 0 3 7 36 16 75 l16 69 249 0 c137 0 249 -2 249
-6z m264 -154 c41 -25 59 -71 50 -128 -5 -35 -4 -41 13 -44 18 -3 18 -8 -10
-126 l-29 -123 -165 3 -165 3 -29 33 c-20 23 -29 43 -29 68 0 37 28 102 55
124 11 9 13 15 5 20 -16 10 53 36 118 45 33 4 52 11 49 19 -6 17 -97 13 -136
-7 -52 -26 -65 -23 -57 16 4 17 10 47 13 64 5 28 12 34 42 42 101 27 225 23
275 -9z m484 3 c31 -11 42 -19 38 -31 -6 -22 -13 -50 -20 -84 -5 -22 -12 -28
-33 -28 -14 0 -34 7 -44 16 -21 19 -109 32 -109 17 0 -10 95 -47 150 -60 35
-8 50 -30 50 -77 0 -104 -101 -181 -240 -181 -79 0 -170 26 -170 48 1 7 7 37
14 67 15 66 39 76 87 36 23 -19 42 -26 75 -26 24 0 44 4 44 9 0 10 -13 15 -68
26 -41 8 -92 51 -92 76 0 13 -7 19 -21 19 -19 0 -21 4 -16 35 20 125 198 194
355 138z m1312 0 c-1 -5 -7 -37 -15 -73 -18 -83 -18 -100 0 -100 17 0 18 -18
6 -72 -6 -27 -5 -40 4 -48 16 -14 30 3 44 55 15 54 14 63 -7 67 -18 3 -18 6 1
91 l20 87 94 0 c85 0 94 -2 89 -17 -6 -21 -36 -152 -36 -159 0 -2 9 -4 20 -4
17 0 19 -4 14 -26 -4 -14 -16 -69 -28 -122 l-21 -97 -164 -2 c-225 -3 -241 7
-228 141 4 33 10 71 13 84 5 18 2 22 -16 22 -14 0 -20 5 -17 13 2 6 12 47 22
90 l19 77 93 0 c51 0 93 -3 93 -7z"/>
<path d="M1613 3143 c3 -16 42 -265 88 -555 46 -291 86 -528 89 -528 4 0 60
67 126 149 65 82 122 147 126 145 4 -3 62 -83 129 -178 l122 -174 83 60 c46
33 84 62 84 64 0 3 -60 80 -134 172 l-134 167 81 27 c45 15 135 43 200 63 65
20 117 38 115 40 -2 2 -224 133 -492 290 -450 263 -488 283 -483 258z"/>
<path d="M6006 2584 c-10 -27 -7 -34 15 -34 17 0 20 -4 15 -22 -17 -63 -18
-98 -4 -98 20 0 53 39 67 79 14 43 14 41 -9 41 -13 0 -22 9 -26 25 -7 29 -48
35 -58 9z"/>
<path d="M3600 2470 c-16 -16 -18 -25 -10 -40 20 -37 53 -20 62 33 4 21 1 27
-13 27 -11 0 -28 -9 -39 -20z"/>
</g>
</svg>
